<mxfile host="app.diagrams.net" modified="2023-09-08T09:24:58.711Z" agent="Mozilla/5.0 (Windows NT 10.0; Win64; x64) AppleWebKit/537.36 (KHTML, like Gecko) Chrome/114.0.0.0 Safari/537.36" etag="bepn0Vj4HzR0AIFamPdE" version="21.7.2" type="device">
  <diagram name="Page-1" id="WeI0om18CPMwrkwInwFi">
    <mxGraphModel dx="1400" dy="727" grid="1" gridSize="10" guides="1" tooltips="1" connect="1" arrows="1" fold="1" page="1" pageScale="1" pageWidth="827" pageHeight="1169" math="0" shadow="0">
      <root>
        <mxCell id="0" />
        <mxCell id="1" parent="0" />
        <mxCell id="sGkSfb0E6x702Zurhhks-1" value="Excel sheet" style="rounded=1;whiteSpace=wrap;html=1;" vertex="1" parent="1">
          <mxGeometry x="500" y="80" width="120" height="40" as="geometry" />
        </mxCell>
        <mxCell id="sGkSfb0E6x702Zurhhks-2" value="DB API for Risk Scenarios" style="rounded=1;whiteSpace=wrap;html=1;" vertex="1" parent="1">
          <mxGeometry x="60" y="170" width="120" height="40" as="geometry" />
        </mxCell>
        <mxCell id="sGkSfb0E6x702Zurhhks-4" value="DB API for Solutions DBs" style="rounded=1;whiteSpace=wrap;html=1;" vertex="1" parent="1">
          <mxGeometry x="300" y="170" width="120" height="40" as="geometry" />
        </mxCell>
        <mxCell id="sGkSfb0E6x702Zurhhks-5" value="DB API for Data Providers&#39; DBs" style="rounded=1;whiteSpace=wrap;html=1;" vertex="1" parent="1">
          <mxGeometry x="420" y="170" width="120" height="40" as="geometry" />
        </mxCell>
        <mxCell id="sGkSfb0E6x702Zurhhks-6" value="DB API for CTP/Risk/BOSS" style="rounded=1;whiteSpace=wrap;html=1;" vertex="1" parent="1">
          <mxGeometry x="180" y="170" width="120" height="40" as="geometry" />
        </mxCell>
        <mxCell id="sGkSfb0E6x702Zurhhks-7" value="Derived Data API 2" style="rounded=1;whiteSpace=wrap;html=1;" vertex="1" parent="1">
          <mxGeometry x="690" y="171" width="120" height="40" as="geometry" />
        </mxCell>
        <mxCell id="sGkSfb0E6x702Zurhhks-8" value="Derived Data API 1" style="rounded=1;whiteSpace=wrap;html=1;" vertex="1" parent="1">
          <mxGeometry x="570" y="171" width="120" height="40" as="geometry" />
        </mxCell>
        <mxCell id="sGkSfb0E6x702Zurhhks-9" value="......" style="rounded=1;whiteSpace=wrap;html=1;" vertex="1" parent="1">
          <mxGeometry x="810" y="171" width="120" height="40" as="geometry" />
        </mxCell>
        <mxCell id="sGkSfb0E6x702Zurhhks-10" value="" style="endArrow=classic;html=1;rounded=0;exitX=0;exitY=1;exitDx=0;exitDy=0;entryX=0.5;entryY=0;entryDx=0;entryDy=0;" edge="1" parent="1" source="sGkSfb0E6x702Zurhhks-1" target="sGkSfb0E6x702Zurhhks-2">
          <mxGeometry width="50" height="50" relative="1" as="geometry">
            <mxPoint x="650" y="400" as="sourcePoint" />
            <mxPoint x="700" y="350" as="targetPoint" />
          </mxGeometry>
        </mxCell>
        <mxCell id="sGkSfb0E6x702Zurhhks-11" value="" style="endArrow=classic;html=1;rounded=0;exitX=0.25;exitY=1;exitDx=0;exitDy=0;entryX=0.5;entryY=0;entryDx=0;entryDy=0;" edge="1" parent="1" source="sGkSfb0E6x702Zurhhks-1" target="sGkSfb0E6x702Zurhhks-6">
          <mxGeometry width="50" height="50" relative="1" as="geometry">
            <mxPoint x="510" y="130" as="sourcePoint" />
            <mxPoint x="130" y="180" as="targetPoint" />
          </mxGeometry>
        </mxCell>
        <mxCell id="sGkSfb0E6x702Zurhhks-12" value="" style="endArrow=classic;html=1;rounded=0;exitX=0.342;exitY=1.025;exitDx=0;exitDy=0;entryX=0.5;entryY=0;entryDx=0;entryDy=0;exitPerimeter=0;" edge="1" parent="1" source="sGkSfb0E6x702Zurhhks-1" target="sGkSfb0E6x702Zurhhks-4">
          <mxGeometry width="50" height="50" relative="1" as="geometry">
            <mxPoint x="490" y="70" as="sourcePoint" />
            <mxPoint x="310" y="110" as="targetPoint" />
          </mxGeometry>
        </mxCell>
        <mxCell id="sGkSfb0E6x702Zurhhks-13" value="" style="endArrow=classic;html=1;rounded=0;exitX=0.425;exitY=0.975;exitDx=0;exitDy=0;entryX=0.5;entryY=0;entryDx=0;entryDy=0;exitPerimeter=0;" edge="1" parent="1" source="sGkSfb0E6x702Zurhhks-1" target="sGkSfb0E6x702Zurhhks-5">
          <mxGeometry width="50" height="50" relative="1" as="geometry">
            <mxPoint x="570" y="330" as="sourcePoint" />
            <mxPoint x="389" y="379" as="targetPoint" />
          </mxGeometry>
        </mxCell>
        <mxCell id="sGkSfb0E6x702Zurhhks-14" value="" style="endArrow=classic;html=1;rounded=0;exitX=0.642;exitY=1.025;exitDx=0;exitDy=0;entryX=0.5;entryY=0;entryDx=0;entryDy=0;exitPerimeter=0;" edge="1" parent="1" source="sGkSfb0E6x702Zurhhks-1" target="sGkSfb0E6x702Zurhhks-8">
          <mxGeometry width="50" height="50" relative="1" as="geometry">
            <mxPoint x="561" y="129" as="sourcePoint" />
            <mxPoint x="490" y="180" as="targetPoint" />
          </mxGeometry>
        </mxCell>
        <mxCell id="sGkSfb0E6x702Zurhhks-15" value="" style="endArrow=classic;html=1;rounded=0;exitX=0.675;exitY=1.05;exitDx=0;exitDy=0;entryX=0.5;entryY=0;entryDx=0;entryDy=0;exitPerimeter=0;" edge="1" parent="1" source="sGkSfb0E6x702Zurhhks-1" target="sGkSfb0E6x702Zurhhks-7">
          <mxGeometry width="50" height="50" relative="1" as="geometry">
            <mxPoint x="750" y="121" as="sourcePoint" />
            <mxPoint x="803" y="171" as="targetPoint" />
          </mxGeometry>
        </mxCell>
        <mxCell id="sGkSfb0E6x702Zurhhks-16" value="" style="endArrow=classic;html=1;rounded=0;exitX=0.867;exitY=1.025;exitDx=0;exitDy=0;entryX=0.5;entryY=0;entryDx=0;entryDy=0;exitPerimeter=0;" edge="1" parent="1" source="sGkSfb0E6x702Zurhhks-1" target="sGkSfb0E6x702Zurhhks-9">
          <mxGeometry width="50" height="50" relative="1" as="geometry">
            <mxPoint x="620" y="120" as="sourcePoint" />
            <mxPoint x="789" y="169" as="targetPoint" />
          </mxGeometry>
        </mxCell>
        <mxCell id="sGkSfb0E6x702Zurhhks-17" value="excel -&amp;gt; python library" style="rounded=0;whiteSpace=wrap;html=1;strokeColor=none;" vertex="1" parent="1">
          <mxGeometry x="500" y="140" width="120" height="20" as="geometry" />
        </mxCell>
        <mxCell id="sGkSfb0E6x702Zurhhks-18" value="Manual Cells" style="rounded=1;whiteSpace=wrap;html=1;" vertex="1" parent="1">
          <mxGeometry x="970" y="170" width="120" height="40" as="geometry" />
        </mxCell>
        <mxCell id="sGkSfb0E6x702Zurhhks-19" value="" style="endArrow=classic;html=1;rounded=0;entryX=0.5;entryY=0;entryDx=0;entryDy=0;" edge="1" parent="1">
          <mxGeometry width="50" height="50" relative="1" as="geometry">
            <mxPoint x="620" y="120" as="sourcePoint" />
            <mxPoint x="1036" y="171" as="targetPoint" />
          </mxGeometry>
        </mxCell>
        <mxCell id="sGkSfb0E6x702Zurhhks-20" value="Non-DB data source need to be saved to one of these by the owner, or leave as manual cell before that" style="shape=process;whiteSpace=wrap;html=1;backgroundOutline=1;" vertex="1" parent="1">
          <mxGeometry x="300" y="260" width="240" height="60" as="geometry" />
        </mxCell>
        <mxCell id="sGkSfb0E6x702Zurhhks-21" value="" style="shape=flexArrow;endArrow=classic;html=1;rounded=0;entryX=0.5;entryY=1;entryDx=0;entryDy=0;exitX=0.25;exitY=0;exitDx=0;exitDy=0;" edge="1" parent="1" source="sGkSfb0E6x702Zurhhks-20" target="sGkSfb0E6x702Zurhhks-4">
          <mxGeometry width="50" height="50" relative="1" as="geometry">
            <mxPoint x="650" y="400" as="sourcePoint" />
            <mxPoint x="700" y="350" as="targetPoint" />
          </mxGeometry>
        </mxCell>
        <mxCell id="sGkSfb0E6x702Zurhhks-22" value="" style="shape=flexArrow;endArrow=classic;html=1;rounded=0;entryX=0.5;entryY=1;entryDx=0;entryDy=0;exitX=0.25;exitY=0;exitDx=0;exitDy=0;" edge="1" parent="1">
          <mxGeometry width="50" height="50" relative="1" as="geometry">
            <mxPoint x="479" y="260" as="sourcePoint" />
            <mxPoint x="479" y="210" as="targetPoint" />
          </mxGeometry>
        </mxCell>
        <mxCell id="sGkSfb0E6x702Zurhhks-23" value="Custom script need to be converted to conform the API by the owner, or leave as manual cell before that" style="shape=process;whiteSpace=wrap;html=1;backgroundOutline=1;" vertex="1" parent="1">
          <mxGeometry x="600" y="260" width="240" height="60" as="geometry" />
        </mxCell>
        <mxCell id="sGkSfb0E6x702Zurhhks-24" value="" style="shape=flexArrow;endArrow=classic;html=1;rounded=0;entryX=0.5;entryY=1;entryDx=0;entryDy=0;exitX=0.25;exitY=0;exitDx=0;exitDy=0;" edge="1" parent="1">
          <mxGeometry width="50" height="50" relative="1" as="geometry">
            <mxPoint x="640" y="261" as="sourcePoint" />
            <mxPoint x="640" y="211" as="targetPoint" />
          </mxGeometry>
        </mxCell>
        <mxCell id="sGkSfb0E6x702Zurhhks-25" value="" style="shape=flexArrow;endArrow=classic;html=1;rounded=0;entryX=0.5;entryY=1;entryDx=0;entryDy=0;exitX=0.25;exitY=0;exitDx=0;exitDy=0;" edge="1" parent="1">
          <mxGeometry width="50" height="50" relative="1" as="geometry">
            <mxPoint x="743" y="261" as="sourcePoint" />
            <mxPoint x="743" y="211" as="targetPoint" />
          </mxGeometry>
        </mxCell>
        <mxCell id="sGkSfb0E6x702Zurhhks-26" value="" style="endArrow=classic;html=1;rounded=0;entryX=0.5;entryY=1;entryDx=0;entryDy=0;exitX=1;exitY=0.5;exitDx=0;exitDy=0;" edge="1" parent="1" source="sGkSfb0E6x702Zurhhks-23" target="sGkSfb0E6x702Zurhhks-18">
          <mxGeometry width="50" height="50" relative="1" as="geometry">
            <mxPoint x="650" y="300" as="sourcePoint" />
            <mxPoint x="700" y="250" as="targetPoint" />
          </mxGeometry>
        </mxCell>
        <mxCell id="sGkSfb0E6x702Zurhhks-27" value="" style="endArrow=classic;html=1;rounded=0;entryX=0.5;entryY=1;entryDx=0;entryDy=0;exitX=0.471;exitY=1;exitDx=0;exitDy=0;exitPerimeter=0;" edge="1" parent="1" source="sGkSfb0E6x702Zurhhks-20" target="sGkSfb0E6x702Zurhhks-18">
          <mxGeometry width="50" height="50" relative="1" as="geometry">
            <mxPoint x="850" y="300" as="sourcePoint" />
            <mxPoint x="1040" y="220" as="targetPoint" />
            <Array as="points">
              <mxPoint x="870" y="370" />
            </Array>
          </mxGeometry>
        </mxCell>
      </root>
    </mxGraphModel>
  </diagram>
</mxfile>
